# xmcd CD database file
#
# Track frame offsets:
#	150
#	29509
#	53552
#	85355
#	119446
#	143344
#	168912
#	197892
#	225280
#
# Disc length: 3395 seconds
#
# Revision: 1
# Processed by: cddbd v1.5.2PL0 Copyright (c) Steve Scherf et al.
# Submitted via: CDex 1.50beta10
#
DISCID=6b0d4109
DTITLE=Dexter Gordon - Six Clasics Albums CD03
DYEAR=1962
DGENRE=Jazz
TTITLE0=Cheese Cake
TTITLE1=Guess I Will Hang My Tears Out To Dry
TTITLE2=Second Balcony Jump
TTITLE3=Love For Sale
TTITLE4=Where Are You
TTITLE5=Three O'clock In The Morning
TTITLE6=Soy Califa
TTITLE7=Don't Explain
TTITLE8=You Stepped Out Of A Dream
EXTD=YEAR: 1962
EXTT0=
EXTT1=
EXTT2=
EXTT3=
EXTT4=
EXTT5=
EXTT6=
EXTT7=
EXTT8=
PLAYORDER=
